<svg width="351" height="82" viewBox="0 0 351 82" fill="none" xmlns="http://www.w3.org/2000/svg">
<path d="M128.9 9.14C145.43 9.14 153.69 18.68 153.69 30.19C153.69 38.55 149.06 47 138.05 49.95L154.47 77.78H138.54L123.4 51H116.91V77.74H103.14V9.14H128.9ZM128.41 20.55H116.91V40.71H128.41C136.08 40.71 139.53 36.71 139.53 30.48C139.53 24.25 136.08 20.55 128.41 20.55V20.55Z" fill="#022331"/>
<path d="M187.51 22.42C196.27 22.42 202.26 26.55 205.51 31.07V23.3H219.38V77.78H205.51V69.78C202.26 74.5 196.07 78.63 187.41 78.63C173.65 78.63 162.63 67.32 162.63 50.31C162.63 33.3 173.65 22.42 187.51 22.42ZM191.05 34.51C183.68 34.51 176.7 40.02 176.7 50.35C176.7 60.68 183.7 66.57 191.05 66.57C198.63 66.57 205.51 60.87 205.51 50.57C205.51 40.27 198.63 34.51 191.05 34.51Z" fill="#022331"/>
<path d="M235 34.61H228.51V23.3H235V9.83H248.86V23.3H261.06V34.61H248.86V61C248.86 64.64 250.34 66.21 254.67 66.21H261.06V77.81H252.4C241.98 77.81 235 73.39 235 60.9V34.61Z" fill="#022331"/>
<path d="M284.77 23.3H271V77.78H284.77V23.3Z" fill="#022331"/>
<path d="M322.53 78.67C306.79 78.67 294.89 67.67 294.89 50.54C294.89 33.41 307.19 22.42 322.89 22.42C338.59 22.42 350.89 33.33 350.89 50.54C350.89 67.75 338.36 78.67 322.53 78.67ZM322.53 66.67C329.81 66.67 336.79 61.36 336.79 50.54C336.79 39.72 330 34.42 322.72 34.42C315.44 34.42 308.86 39.63 308.86 50.54C308.86 61.45 315.15 66.67 322.53 66.67Z" fill="#022331"/>
<path d="M82.54 32.76C82.4635 41.2576 79.0341 49.3811 72.9981 55.3628C66.9621 61.3445 58.8079 64.7003 50.31 64.7H31.72C29.5266 64.7 27.4231 63.8287 25.8722 62.2778C24.3213 60.7268 23.45 58.6233 23.45 56.43C23.45 54.2367 24.3213 52.1332 25.8722 50.5822C27.4231 49.0313 29.5266 48.16 31.72 48.16H50.31C52.7026 48.1657 55.0641 47.6181 57.21 46.56C59.9086 45.2371 62.1712 43.1678 63.7292 40.5977C65.2872 38.0276 66.0753 35.0645 66 32.06C65.8391 27.9341 64.0794 24.0326 61.0934 21.1809C58.1073 18.3291 54.1289 16.7509 50 16.78H20.36V0.240005H49.8C67.69 0.240005 82.7 14.87 82.54 32.76Z" fill="url(#paint0_linear)"/>
<path d="M66 32.45C65.9974 35.3852 65.1726 38.261 63.619 40.7514C62.0654 43.2418 59.8452 45.2471 57.21 46.54C55.0641 47.5981 52.7026 48.1457 50.31 48.14H31.72C29.5267 48.14 27.4232 49.0113 25.8722 50.5622C24.3213 52.1132 23.45 54.2167 23.45 56.41C23.45 57.496 23.6639 58.5714 24.0795 59.5748C24.4951 60.5782 25.1043 61.4898 25.8722 62.2578C26.6402 63.0257 27.5519 63.6349 28.5552 64.0505C29.5586 64.4661 30.634 64.68 31.72 64.68H50.31C58.851 64.68 67.0428 61.2898 73.0859 55.2542C79.1291 49.2185 82.5294 41.031 82.54 32.49L66 32.45Z" fill="url(#paint1_linear)"/>
<path d="M79.89 81.18H60.12L49.32 64.71L38.49 48.16L20.36 20.51V0.240005H26.87L37.7 16.78L57.21 46.55L66.31 60.44L79.89 81.18Z" fill="url(#paint2_linear)"/>
<path d="M277.88 17.2C282.547 17.2 286.33 13.4168 286.33 8.75C286.33 4.08319 282.547 0.300003 277.88 0.300003C273.213 0.300003 269.43 4.08319 269.43 8.75C269.43 13.4168 273.213 17.2 277.88 17.2Z" fill="url(#paint3_linear)"/>
<path d="M9.42999 65.54C14.4613 65.54 18.54 61.4613 18.54 56.43C18.54 51.3987 14.4613 47.32 9.42999 47.32C4.39868 47.32 0.320007 51.3987 0.320007 56.43C0.320007 61.4613 4.39868 65.54 9.42999 65.54Z" fill="url(#paint4_linear)"/>
<defs>
<linearGradient id="paint0_linear" x1="72.04" y1="63.35" x2="29.01" y2="11.24" gradientUnits="userSpaceOnUse">
<stop stop-color="#AE67F3"/>
<stop offset="0.51" stop-color="#F175CE"/>
<stop offset="0.57" stop-color="#F077C6"/>
<stop offset="1" stop-color="#E79062"/>
</linearGradient>
<linearGradient id="paint1_linear" x1="31.45" y1="62.52" x2="75.04" y2="41.03" gradientUnits="userSpaceOnUse">
<stop stop-color="white" stop-opacity="0"/>
<stop offset="0.54" stop-color="#231F20" stop-opacity="0.4"/>
<stop offset="1" stop-color="white" stop-opacity="0"/>
</linearGradient>
<linearGradient id="paint2_linear" x1="12407.4" y1="17066.4" x2="8958.79" y2="13995.3" gradientUnits="userSpaceOnUse">
<stop stop-color="#AE67F3"/>
<stop offset="0.51" stop-color="#F175CE"/>
<stop offset="0.57" stop-color="#F077C6"/>
<stop offset="1" stop-color="#E79062"/>
</linearGradient>
<linearGradient id="paint3_linear" x1="7276.51" y1="2756.69" x2="7460.55" y2="2452.49" gradientUnits="userSpaceOnUse">
<stop stop-color="#AE67F3"/>
<stop offset="0.51" stop-color="#F175CE"/>
<stop offset="0.57" stop-color="#F077C6"/>
<stop offset="1" stop-color="#E79062"/>
</linearGradient>
<linearGradient id="paint4_linear" x1="3412.56" y1="4047.88" x2="2329.38" y2="3453.18" gradientUnits="userSpaceOnUse">
<stop stop-color="#AE67F3"/>
<stop offset="0.51" stop-color="#F175CE"/>
<stop offset="0.57" stop-color="#F077C6"/>
<stop offset="1" stop-color="#E79062"/>
</linearGradient>
</defs>
</svg>
